<svg fill="none" height="100%" width="100%" viewBox="0 0 90 92" xmlns:xlink="http://www.w3.org/1999/xlink" xmlns="http://www.w3.org/2000/svg"><defs><clipPath id="i0"><rect height="92" width="90" y="0" x="0" /></clipPath><g id="i1"><g opacity="0" visibility="visible" id="i2"><animate repeatCount="indefinite" begin="0s" calcMode="discrete" dur="1.602s" values="visible; hidden; hidden" keyTimes="0; 0.354088; 1" attributeName="visibility" /><animate repeatCount="indefinite" attributeName="opacity" dur="1.602s" begin="0s" fill="freeze" values="0; 1; 1; 0; 0" keyTimes="0; 0.3125; 0.645833; 0.958333; 1" keySplines="0.333 0 0.667 1; 0.333 0 0.667 1; 0.333 0 0.667 1; 0 0 1 1" calcMode="spline" /><g transform="translate(44.75,34.5)"><animateTransform repeatCount="indefinite" type="translate" attributeName="transform" dur="1.602s" begin="0s" calcMode="spline" values="44.75 34.5; 44.75 62; 44.75 62" keyTimes="0; 0.958333; 1" keySplines="0.333 0 0.667 1; 0 0 1 1" fill="freeze" /><g transform="scale(0.7,0.7)"><animateTransform repeatCount="indefinite" type="scale" attributeName="transform" dur="1.602s" begin="0s" calcMode="spline" values="0.7 0.7; 0.8 0.8; 0.8 0.8; 0.7 0.7; 0.7 0.7" keyTimes="0; 0.3125; 0.645833; 0.958333; 1" keySplines="0.333 0 0.833 0.833; 0 0 1 1; 0.333 0 0.833 0.833; 0 0 1 1" fill="freeze" /><g transform="translate(-45,-46)"><g id="i3" transform="matrix(1,0,0,1,45,47.893)"><path fill="#222222" d="M19.607,-10.516C18.436,-11.688,16.536,-11.688,15.365,-10.516C15.365,-10.516,0.001,4.848,0.001,4.848C0.001,4.848,-15.364,-10.516,-15.364,-10.516C-16.536,-11.688,-18.436,-11.688,-19.607,-10.516C-20.779,-9.345,-20.779,-7.445,-19.607,-6.273C-19.607,-6.273,-2.637,10.697,-2.637,10.697C-1.919,11.414,-0.928,11.688,0.001,11.526C0.929,11.688,1.919,11.414,2.635,10.697C2.635,10.697,19.607,-6.273,19.607,-6.273C20.779,-7.445,20.779,-9.345,19.607,-10.516Z" /></g></g></g></g></g><g opacity="0" visibility="visible" id="i4"><animate repeatCount="indefinite" begin="0s" calcMode="discrete" dur="1.602s" values="visible; hidden; hidden" keyTimes="0; 0.833207; 1" attributeName="visibility" /><animate repeatCount="indefinite" attributeName="opacity" dur="1.602s" begin="0s" fill="freeze" values="0; 0; 1; 1; 0" keyTimes="0; 0.479167; 0.791667; 1; 1" keySplines="0 0 1 1; 0.333 0 0.667 1; 0.333 0 0.667 1; 0.333 0 0.667 1" calcMode="spline" /><g transform="translate(44.75,34.5)"><animateTransform repeatCount="indefinite" type="translate" attributeName="transform" dur="1.602s" begin="0s" calcMode="spline" values="44.75 34.5; 44.75 34.5; 44.75 62" keyTimes="0; 0.479167; 1" keySplines="0 0 1 1; 0.333 0 0.667 1" fill="freeze" /><g transform="scale(0.7,0.7)"><animateTransform repeatCount="indefinite" type="scale" attributeName="transform" dur="1.602s" begin="0s" calcMode="spline" values="0.7 0.7; 0.7 0.7; 0.8 0.8; 0.8 0.8; 0.7 0.7" keyTimes="0; 0.479167; 0.791667; 1; 1" keySplines="0 0 1 1; 0.333 0 0.833 0.833; 0 0 1 1; 0.333 0 0.833 0.833" fill="freeze" /><g transform="translate(-45,-46)"><g id="i3" transform="matrix(1,0,0,1,45,47.893)"><path fill="#222222" d="M19.607,-10.516C18.436,-11.688,16.536,-11.688,15.365,-10.516C15.365,-10.516,0.001,4.848,0.001,4.848C0.001,4.848,-15.364,-10.516,-15.364,-10.516C-16.536,-11.688,-18.436,-11.688,-19.607,-10.516C-20.779,-9.345,-20.779,-7.445,-19.607,-6.273C-19.607,-6.273,-2.637,10.697,-2.637,10.697C-1.919,11.414,-0.928,11.688,0.001,11.526C0.929,11.688,1.919,11.414,2.635,10.697C2.635,10.697,19.607,-6.273,19.607,-6.273C20.779,-7.445,20.779,-9.345,19.607,-10.516Z" /></g></g></g></g></g><g opacity="0" visibility="hidden" id="i5"><animate repeatCount="indefinite" begin="0s" calcMode="discrete" dur="1.602s" values="hidden; visible; visible" keyTimes="0; 0.354088; 1" attributeName="visibility" /><animate repeatCount="indefinite" attributeName="opacity" dur="1.602s" begin="0s" fill="freeze" values="0; 0; 1; 1; 0" keyTimes="0; 0.979167; 1; 1; 1" keySplines="0 0 1 1; 0.333 0 0.667 1; 0.333 0 0.667 1; 0.333 0 0.667 1" calcMode="spline" /><g transform="translate(44.75,34.5)"><animateTransform repeatCount="indefinite" type="translate" attributeName="transform" dur="1.602s" begin="0s" calcMode="spline" values="44.75 34.5; 44.75 34.5; 44.75 62" keyTimes="0; 0.979167; 1" keySplines="0 0 1 1; 0.333 0 0.667 1" fill="freeze" /><g transform="scale(0.7,0.7)"><animateTransform repeatCount="indefinite" type="scale" attributeName="transform" dur="1.602s" begin="0s" calcMode="spline" values="0.7 0.7; 0.7 0.7; 0.8 0.8; 0.8 0.8; 0.7 0.7" keyTimes="0; 0.979167; 1; 1; 1" keySplines="0 0 1 1; 0.333 0 0.833 0.833; 0 0 1 1; 0.333 0 0.833 0.833" fill="freeze" /><g transform="translate(-45,-46)"><g id="i3" transform="matrix(1,0,0,1,45,47.893)"><path fill="#222222" d="M19.607,-10.516C18.436,-11.688,16.536,-11.688,15.365,-10.516C15.365,-10.516,0.001,4.848,0.001,4.848C0.001,4.848,-15.364,-10.516,-15.364,-10.516C-16.536,-11.688,-18.436,-11.688,-19.607,-10.516C-20.779,-9.345,-20.779,-7.445,-19.607,-6.273C-19.607,-6.273,-2.637,10.697,-2.637,10.697C-1.919,11.414,-0.928,11.688,0.001,11.526C0.929,11.688,1.919,11.414,2.635,10.697C2.635,10.697,19.607,-6.273,19.607,-6.273C20.779,-7.445,20.779,-9.345,19.607,-10.516Z" /></g></g></g></g></g><g opacity="0" visibility="hidden" id="i6"><animate repeatCount="indefinite" begin="0s" calcMode="discrete" dur="1.602s" values="hidden; visible; visible" keyTimes="0; 0.833207; 1" attributeName="visibility" /><animate repeatCount="indefinite" attributeName="opacity" dur="1.602s" begin="0s" fill="freeze" values="0; 0; 1; 1; 0" keyTimes="0; 1; 1; 1; 1" keySplines="0 0 1 1; 0.333 0 0.667 1; 0.333 0 0.667 1; 0.333 0 0.667 1" calcMode="spline" /><g transform="translate(44.75,34.5)"><animateTransform repeatCount="indefinite" type="translate" attributeName="transform" dur="1.602s" begin="0s" calcMode="spline" values="44.75 34.5; 44.75 34.5; 44.75 62" keyTimes="0; 1; 1" keySplines="0 0 1 1; 0.333 0 0.667 1" fill="freeze" /><g transform="scale(0.7,0.7)"><animateTransform repeatCount="indefinite" type="scale" attributeName="transform" dur="1.602s" begin="0s" calcMode="spline" values="0.7 0.7; 0.7 0.7; 0.8 0.8; 0.8 0.8; 0.7 0.7" keyTimes="0; 1; 1; 1; 1" keySplines="0 0 1 1; 0.333 0 0.833 0.833; 0 0 1 1; 0.333 0 0.833 0.833" fill="freeze" /><g transform="translate(-45,-46)"><g id="i3" transform="matrix(1,0,0,1,45,47.893)"><path fill="#222222" d="M19.607,-10.516C18.436,-11.688,16.536,-11.688,15.365,-10.516C15.365,-10.516,0.001,4.848,0.001,4.848C0.001,4.848,-15.364,-10.516,-15.364,-10.516C-16.536,-11.688,-18.436,-11.688,-19.607,-10.516C-20.779,-9.345,-20.779,-7.445,-19.607,-6.273C-19.607,-6.273,-2.637,10.697,-2.637,10.697C-1.919,11.414,-0.928,11.688,0.001,11.526C0.929,11.688,1.919,11.414,2.635,10.697C2.635,10.697,19.607,-6.273,19.607,-6.273C20.779,-7.445,20.779,-9.345,19.607,-10.516Z" /></g></g></g></g></g></g></defs><g transform="matrix(1,0,0,1,0,0)" id="i7"><g clip-path="url(#i0)"><g opacity="0" visibility="visible"><animate repeatCount="indefinite" begin="0s" calcMode="discrete" dur="1.602s" values="visible; hidden; hidden" keyTimes="0; 0.354088; 1" attributeName="visibility" /><animate repeatCount="indefinite" attributeName="opacity" dur="1.602s" begin="0s" fill="freeze" values="0; 1; 1; 0; 0" keyTimes="0; 0.3125; 0.645833; 0.958333; 1" keySplines="0.333 0 0.667 1; 0.333 0 0.667 1; 0.333 0 0.667 1; 0 0 1 1" calcMode="spline" /><g transform="translate(44.75,34.5)"><animateTransform repeatCount="indefinite" type="translate" attributeName="transform" dur="1.602s" begin="0s" calcMode="spline" values="44.75 34.5; 44.75 62; 44.75 62" keyTimes="0; 0.958333; 1" keySplines="0.333 0 0.667 1; 0 0 1 1" fill="freeze" /><g transform="scale(0.7,0.7)"><animateTransform repeatCount="indefinite" type="scale" attributeName="transform" dur="1.602s" begin="0s" calcMode="spline" values="0.7 0.7; 0.8 0.8; 0.8 0.8; 0.7 0.7; 0.7 0.7" keyTimes="0; 0.3125; 0.645833; 0.958333; 1" keySplines="0.333 0 0.833 0.833; 0 0 1 1; 0.333 0 0.833 0.833; 0 0 1 1" fill="freeze" /><g transform="translate(-45,-46)"><g transform="matrix(1,0,0,1,45,47.893)"><path fill="#222222" d="M19.607,-10.516C18.436,-11.688,16.536,-11.688,15.365,-10.516C15.365,-10.516,0.001,4.848,0.001,4.848C0.001,4.848,-15.364,-10.516,-15.364,-10.516C-16.536,-11.688,-18.436,-11.688,-19.607,-10.516C-20.779,-9.345,-20.779,-7.445,-19.607,-6.273C-19.607,-6.273,-2.637,10.697,-2.637,10.697C-1.919,11.414,-0.928,11.688,0.001,11.526C0.929,11.688,1.919,11.414,2.635,10.697C2.635,10.697,19.607,-6.273,19.607,-6.273C20.779,-7.445,20.779,-9.345,19.607,-10.516Z" /></g></g></g></g></g><g opacity="0" visibility="visible"><animate repeatCount="indefinite" begin="0s" calcMode="discrete" dur="1.602s" values="visible; hidden; hidden" keyTimes="0; 0.833207; 1" attributeName="visibility" /><animate repeatCount="indefinite" attributeName="opacity" dur="1.602s" begin="0s" fill="freeze" values="0; 0; 1; 1; 0" keyTimes="0; 0.479167; 0.791667; 1; 1" keySplines="0 0 1 1; 0.333 0 0.667 1; 0.333 0 0.667 1; 0.333 0 0.667 1" calcMode="spline" /><g transform="translate(44.75,34.5)"><animateTransform repeatCount="indefinite" type="translate" attributeName="transform" dur="1.602s" begin="0s" calcMode="spline" values="44.75 34.5; 44.75 34.5; 44.75 62" keyTimes="0; 0.479167; 1" keySplines="0 0 1 1; 0.333 0 0.667 1" fill="freeze" /><g transform="scale(0.7,0.7)"><animateTransform repeatCount="indefinite" type="scale" attributeName="transform" dur="1.602s" begin="0s" calcMode="spline" values="0.7 0.7; 0.7 0.7; 0.8 0.8; 0.8 0.8; 0.7 0.7" keyTimes="0; 0.479167; 0.791667; 1; 1" keySplines="0 0 1 1; 0.333 0 0.833 0.833; 0 0 1 1; 0.333 0 0.833 0.833" fill="freeze" /><g transform="translate(-45,-46)"><g transform="matrix(1,0,0,1,45,47.893)"><path fill="#222222" d="M19.607,-10.516C18.436,-11.688,16.536,-11.688,15.365,-10.516C15.365,-10.516,0.001,4.848,0.001,4.848C0.001,4.848,-15.364,-10.516,-15.364,-10.516C-16.536,-11.688,-18.436,-11.688,-19.607,-10.516C-20.779,-9.345,-20.779,-7.445,-19.607,-6.273C-19.607,-6.273,-2.637,10.697,-2.637,10.697C-1.919,11.414,-0.928,11.688,0.001,11.526C0.929,11.688,1.919,11.414,2.635,10.697C2.635,10.697,19.607,-6.273,19.607,-6.273C20.779,-7.445,20.779,-9.345,19.607,-10.516Z" /></g></g></g></g></g><g opacity="0" visibility="hidden"><animate repeatCount="indefinite" begin="0s" calcMode="discrete" dur="1.602s" values="hidden; visible; visible" keyTimes="0; 0.354088; 1" attributeName="visibility" /><animate repeatCount="indefinite" attributeName="opacity" dur="1.602s" begin="0s" fill="freeze" values="0; 0; 1; 1; 0" keyTimes="0; 0.979167; 1; 1; 1" keySplines="0 0 1 1; 0.333 0 0.667 1; 0.333 0 0.667 1; 0.333 0 0.667 1" calcMode="spline" /><g transform="translate(44.75,34.5)"><animateTransform repeatCount="indefinite" type="translate" attributeName="transform" dur="1.602s" begin="0s" calcMode="spline" values="44.75 34.5; 44.75 34.5; 44.75 62" keyTimes="0; 0.979167; 1" keySplines="0 0 1 1; 0.333 0 0.667 1" fill="freeze" /><g transform="scale(0.7,0.7)"><animateTransform repeatCount="indefinite" type="scale" attributeName="transform" dur="1.602s" begin="0s" calcMode="spline" values="0.7 0.7; 0.7 0.7; 0.8 0.8; 0.8 0.8; 0.7 0.7" keyTimes="0; 0.979167; 1; 1; 1" keySplines="0 0 1 1; 0.333 0 0.833 0.833; 0 0 1 1; 0.333 0 0.833 0.833" fill="freeze" /><g transform="translate(-45,-46)"><g transform="matrix(1,0,0,1,45,47.893)"><path fill="#222222" d="M19.607,-10.516C18.436,-11.688,16.536,-11.688,15.365,-10.516C15.365,-10.516,0.001,4.848,0.001,4.848C0.001,4.848,-15.364,-10.516,-15.364,-10.516C-16.536,-11.688,-18.436,-11.688,-19.607,-10.516C-20.779,-9.345,-20.779,-7.445,-19.607,-6.273C-19.607,-6.273,-2.637,10.697,-2.637,10.697C-1.919,11.414,-0.928,11.688,0.001,11.526C0.929,11.688,1.919,11.414,2.635,10.697C2.635,10.697,19.607,-6.273,19.607,-6.273C20.779,-7.445,20.779,-9.345,19.607,-10.516Z" /></g></g></g></g></g><g opacity="0" visibility="hidden"><animate repeatCount="indefinite" begin="0s" calcMode="discrete" dur="1.602s" values="hidden; visible; visible" keyTimes="0; 0.833207; 1" attributeName="visibility" /><animate repeatCount="indefinite" attributeName="opacity" dur="1.602s" begin="0s" fill="freeze" values="0; 0; 1; 1; 0" keyTimes="0; 1; 1; 1; 1" keySplines="0 0 1 1; 0.333 0 0.667 1; 0.333 0 0.667 1; 0.333 0 0.667 1" calcMode="spline" /><g transform="translate(44.75,34.5)"><animateTransform repeatCount="indefinite" type="translate" attributeName="transform" dur="1.602s" begin="0s" calcMode="spline" values="44.75 34.5; 44.75 34.5; 44.75 62" keyTimes="0; 1; 1" keySplines="0 0 1 1; 0.333 0 0.667 1" fill="freeze" /><g transform="scale(0.7,0.7)"><animateTransform repeatCount="indefinite" type="scale" attributeName="transform" dur="1.602s" begin="0s" calcMode="spline" values="0.7 0.7; 0.7 0.7; 0.8 0.8; 0.8 0.8; 0.7 0.7" keyTimes="0; 1; 1; 1; 1" keySplines="0 0 1 1; 0.333 0 0.833 0.833; 0 0 1 1; 0.333 0 0.833 0.833" fill="freeze" /><g transform="translate(-45,-46)"><g transform="matrix(1,0,0,1,45,47.893)"><path fill="#222222" d="M19.607,-10.516C18.436,-11.688,16.536,-11.688,15.365,-10.516C15.365,-10.516,0.001,4.848,0.001,4.848C0.001,4.848,-15.364,-10.516,-15.364,-10.516C-16.536,-11.688,-18.436,-11.688,-19.607,-10.516C-20.779,-9.345,-20.779,-7.445,-19.607,-6.273C-19.607,-6.273,-2.637,10.697,-2.637,10.697C-1.919,11.414,-0.928,11.688,0.001,11.526C0.929,11.688,1.919,11.414,2.635,10.697C2.635,10.697,19.607,-6.273,19.607,-6.273C20.779,-7.445,20.779,-9.345,19.607,-10.516Z" /></g></g></g></g></g></g></g></svg>